<mxfile host="65bd71144e">
    <diagram id="qVAUzRg2a0vKK6XVnxD7" name="PÃ¡gina-1">
        <mxGraphModel dx="1086" dy="700" grid="1" gridSize="10" guides="1" tooltips="1" connect="1" arrows="1" fold="1" page="1" pageScale="1" pageWidth="827" pageHeight="1169" math="0" shadow="0">
            <root>
                <mxCell id="0"/>
                <mxCell id="1" parent="0"/>
                <mxCell id="2" value="Classname" style="swimlane;fontStyle=1;align=center;verticalAlign=top;childLayout=stackLayout;horizontal=1;startSize=26;horizontalStack=0;resizeParent=1;resizeParentMax=0;resizeLast=0;collapsible=1;marginBottom=0;whiteSpace=wrap;html=1;" vertex="1" parent="1">
                    <mxGeometry x="220" y="130" width="340" height="220" as="geometry"/>
                </mxCell>
                <mxCell id="3" value="- id: int&lt;div&gt;- salario:double&lt;/div&gt;&lt;div&gt;- maxHoras:int&lt;/div&gt;&lt;div&gt;- seguroSocial: boolean&lt;/div&gt;&lt;div&gt;- seguroMedico: boolean&lt;/div&gt;" style="text;strokeColor=none;fillColor=none;align=left;verticalAlign=top;spacingLeft=4;spacingRight=4;overflow=hidden;rotatable=0;points=[[0,0.5],[1,0.5]];portConstraint=eastwest;whiteSpace=wrap;html=1;" vertex="1" parent="2">
                    <mxGeometry y="26" width="340" height="84" as="geometry"/>
                </mxCell>
                <mxCell id="4" value="" style="line;strokeWidth=1;fillColor=none;align=left;verticalAlign=middle;spacingTop=-1;spacingLeft=3;spacingRight=3;rotatable=0;labelPosition=right;points=[];portConstraint=eastwest;strokeColor=inherit;" vertex="1" parent="2">
                    <mxGeometry y="110" width="340" height="8" as="geometry"/>
                </mxCell>
                <mxCell id="5" value="+ ingresarDatos(id: int, salario: double, maxHoras: int): void&lt;div&gt;+ mostrarDatos(): void&lt;/div&gt;&lt;div&gt;+ altaSS(): void&lt;/div&gt;&lt;div&gt;+ bajaSS(): void&lt;/div&gt;&lt;div&gt;+ altaSeguro():void&lt;/div&gt;&lt;div&gt;+ bajaSeguro(): void&lt;/div&gt;" style="text;strokeColor=none;fillColor=none;align=left;verticalAlign=top;spacingLeft=4;spacingRight=4;overflow=hidden;rotatable=0;points=[[0,0.5],[1,0.5]];portConstraint=eastwest;whiteSpace=wrap;html=1;" vertex="1" parent="2">
                    <mxGeometry y="118" width="340" height="102" as="geometry"/>
                </mxCell>
            </root>
        </mxGraphModel>
    </diagram>
</mxfile>